<?xml version="1.0" encoding="utf-8" standalone="no"?>
<!DOCTYPE svg PUBLIC "-//W3C//DTD SVG 1.1//EN"
  "http://www.w3.org/Graphics/SVG/1.1/DTD/svg11.dtd">
<svg xmlns:xlink="http://www.w3.org/1999/xlink" width="460.8pt" height="345.6pt" viewBox="0 0 460.8 345.6" xmlns="http://www.w3.org/2000/svg" version="1.1">
 <metadata>
  <rdf:RDF xmlns:dc="http://purl.org/dc/elements/1.1/" xmlns:cc="http://creativecommons.org/ns#" xmlns:rdf="http://www.w3.org/1999/02/22-rdf-syntax-ns#">
   <cc:Work>
    <dc:type rdf:resource="http://purl.org/dc/dcmitype/StillImage"/>
    <dc:date>2024-06-07T16:40:01.674189</dc:date>
    <dc:format>image/svg+xml</dc:format>
    <dc:creator>
     <cc:Agent>
      <dc:title>Matplotlib v3.8.4, https://matplotlib.org/</dc:title>
     </cc:Agent>
    </dc:creator>
   </cc:Work>
  </rdf:RDF>
 </metadata>
 <defs>
  <style type="text/css">*{stroke-linejoin: round; stroke-linecap: butt}</style>
 </defs>
 <g id="figure_1">
  <g id="patch_1">
   <path d="M 0 345.6 
L 460.8 345.6 
L 460.8 0 
L 0 0 
z
" style="fill: #ffffff"/>
  </g>
  <g id="axes_1">
   <g id="patch_2">
    <path d="M 57.6 307.584 
L 414.72 307.584 
L 414.72 41.472 
L 57.6 41.472 
z
" style="fill: #ffffff"/>
   </g>
   <g id="matplotlib.axis_1">
    <g id="xtick_1">
     <g id="line2d_1">
      <defs>
       <path id="m3b02615726" d="M 0 0 
L 0 3.5 
" style="stroke: #000000; stroke-width: 0.8"/>
      </defs>
      <g>
       <use xlink:href="#m3b02615726" x="73.832727" y="307.584" style="stroke: #000000; stroke-width: 0.8"/>
      </g>
     </g>
     <g id="text_1">
      <!-- 0.00 -->
      <g transform="translate(62.699915 322.182437) scale(0.1 -0.1)">
       <defs>
        <path id="DejaVuSans-30" d="M 2034 4250 
Q 1547 4250 1301 3770 
Q 1056 3291 1056 2328 
Q 1056 1369 1301 889 
Q 1547 409 2034 409 
Q 2525 409 2770 889 
Q 3016 1369 3016 2328 
Q 3016 3291 2770 3770 
Q 2525 4250 2034 4250 
z
M 2034 4750 
Q 2819 4750 3233 4129 
Q 3647 3509 3647 2328 
Q 3647 1150 3233 529 
Q 2819 -91 2034 -91 
Q 1250 -91 836 529 
Q 422 1150 422 2328 
Q 422 3509 836 4129 
Q 1250 4750 2034 4750 
z
" transform="scale(0.015625)"/>
        <path id="DejaVuSans-2e" d="M 684 794 
L 1344 794 
L 1344 0 
L 684 0 
L 684 794 
z
" transform="scale(0.015625)"/>
       </defs>
       <use xlink:href="#DejaVuSans-30"/>
       <use xlink:href="#DejaVuSans-2e" x="63.623047"/>
       <use xlink:href="#DejaVuSans-30" x="95.410156"/>
       <use xlink:href="#DejaVuSans-30" x="159.033203"/>
      </g>
     </g>
    </g>
    <g id="xtick_2">
     <g id="line2d_2">
      <g>
       <use xlink:href="#m3b02615726" x="114.414545" y="307.584" style="stroke: #000000; stroke-width: 0.8"/>
      </g>
     </g>
     <g id="text_2">
      <!-- 0.25 -->
      <g transform="translate(103.281733 322.182437) scale(0.1 -0.1)">
       <defs>
        <path id="DejaVuSans-32" d="M 1228 531 
L 3431 531 
L 3431 0 
L 469 0 
L 469 531 
Q 828 903 1448 1529 
Q 2069 2156 2228 2338 
Q 2531 2678 2651 2914 
Q 2772 3150 2772 3378 
Q 2772 3750 2511 3984 
Q 2250 4219 1831 4219 
Q 1534 4219 1204 4116 
Q 875 4013 500 3803 
L 500 4441 
Q 881 4594 1212 4672 
Q 1544 4750 1819 4750 
Q 2544 4750 2975 4387 
Q 3406 4025 3406 3419 
Q 3406 3131 3298 2873 
Q 3191 2616 2906 2266 
Q 2828 2175 2409 1742 
Q 1991 1309 1228 531 
z
" transform="scale(0.015625)"/>
        <path id="DejaVuSans-35" d="M 691 4666 
L 3169 4666 
L 3169 4134 
L 1269 4134 
L 1269 2991 
Q 1406 3038 1543 3061 
Q 1681 3084 1819 3084 
Q 2600 3084 3056 2656 
Q 3513 2228 3513 1497 
Q 3513 744 3044 326 
Q 2575 -91 1722 -91 
Q 1428 -91 1123 -41 
Q 819 9 494 109 
L 494 744 
Q 775 591 1075 516 
Q 1375 441 1709 441 
Q 2250 441 2565 725 
Q 2881 1009 2881 1497 
Q 2881 1984 2565 2268 
Q 2250 2553 1709 2553 
Q 1456 2553 1204 2497 
Q 953 2441 691 2322 
L 691 4666 
z
" transform="scale(0.015625)"/>
       </defs>
       <use xlink:href="#DejaVuSans-30"/>
       <use xlink:href="#DejaVuSans-2e" x="63.623047"/>
       <use xlink:href="#DejaVuSans-32" x="95.410156"/>
       <use xlink:href="#DejaVuSans-35" x="159.033203"/>
      </g>
     </g>
    </g>
    <g id="xtick_3">
     <g id="line2d_3">
      <g>
       <use xlink:href="#m3b02615726" x="154.996364" y="307.584" style="stroke: #000000; stroke-width: 0.8"/>
      </g>
     </g>
     <g id="text_3">
      <!-- 0.50 -->
      <g transform="translate(143.863551 322.182437) scale(0.1 -0.1)">
       <use xlink:href="#DejaVuSans-30"/>
       <use xlink:href="#DejaVuSans-2e" x="63.623047"/>
       <use xlink:href="#DejaVuSans-35" x="95.410156"/>
       <use xlink:href="#DejaVuSans-30" x="159.033203"/>
      </g>
     </g>
    </g>
    <g id="xtick_4">
     <g id="line2d_4">
      <g>
       <use xlink:href="#m3b02615726" x="195.578182" y="307.584" style="stroke: #000000; stroke-width: 0.8"/>
      </g>
     </g>
     <g id="text_4">
      <!-- 0.75 -->
      <g transform="translate(184.445369 322.182437) scale(0.1 -0.1)">
       <defs>
        <path id="DejaVuSans-37" d="M 525 4666 
L 3525 4666 
L 3525 4397 
L 1831 0 
L 1172 0 
L 2766 4134 
L 525 4134 
L 525 4666 
z
" transform="scale(0.015625)"/>
       </defs>
       <use xlink:href="#DejaVuSans-30"/>
       <use xlink:href="#DejaVuSans-2e" x="63.623047"/>
       <use xlink:href="#DejaVuSans-37" x="95.410156"/>
       <use xlink:href="#DejaVuSans-35" x="159.033203"/>
      </g>
     </g>
    </g>
    <g id="xtick_5">
     <g id="line2d_5">
      <g>
       <use xlink:href="#m3b02615726" x="236.16" y="307.584" style="stroke: #000000; stroke-width: 0.8"/>
      </g>
     </g>
     <g id="text_5">
      <!-- 1.00 -->
      <g transform="translate(225.027187 322.182437) scale(0.1 -0.1)">
       <defs>
        <path id="DejaVuSans-31" d="M 794 531 
L 1825 531 
L 1825 4091 
L 703 3866 
L 703 4441 
L 1819 4666 
L 2450 4666 
L 2450 531 
L 3481 531 
L 3481 0 
L 794 0 
L 794 531 
z
" transform="scale(0.015625)"/>
       </defs>
       <use xlink:href="#DejaVuSans-31"/>
       <use xlink:href="#DejaVuSans-2e" x="63.623047"/>
       <use xlink:href="#DejaVuSans-30" x="95.410156"/>
       <use xlink:href="#DejaVuSans-30" x="159.033203"/>
      </g>
     </g>
    </g>
    <g id="xtick_6">
     <g id="line2d_6">
      <g>
       <use xlink:href="#m3b02615726" x="276.741818" y="307.584" style="stroke: #000000; stroke-width: 0.8"/>
      </g>
     </g>
     <g id="text_6">
      <!-- 1.25 -->
      <g transform="translate(265.609006 322.182437) scale(0.1 -0.1)">
       <use xlink:href="#DejaVuSans-31"/>
       <use xlink:href="#DejaVuSans-2e" x="63.623047"/>
       <use xlink:href="#DejaVuSans-32" x="95.410156"/>
       <use xlink:href="#DejaVuSans-35" x="159.033203"/>
      </g>
     </g>
    </g>
    <g id="xtick_7">
     <g id="line2d_7">
      <g>
       <use xlink:href="#m3b02615726" x="317.323636" y="307.584" style="stroke: #000000; stroke-width: 0.8"/>
      </g>
     </g>
     <g id="text_7">
      <!-- 1.50 -->
      <g transform="translate(306.190824 322.182437) scale(0.1 -0.1)">
       <use xlink:href="#DejaVuSans-31"/>
       <use xlink:href="#DejaVuSans-2e" x="63.623047"/>
       <use xlink:href="#DejaVuSans-35" x="95.410156"/>
       <use xlink:href="#DejaVuSans-30" x="159.033203"/>
      </g>
     </g>
    </g>
    <g id="xtick_8">
     <g id="line2d_8">
      <g>
       <use xlink:href="#m3b02615726" x="357.905455" y="307.584" style="stroke: #000000; stroke-width: 0.8"/>
      </g>
     </g>
     <g id="text_8">
      <!-- 1.75 -->
      <g transform="translate(346.772642 322.182437) scale(0.1 -0.1)">
       <use xlink:href="#DejaVuSans-31"/>
       <use xlink:href="#DejaVuSans-2e" x="63.623047"/>
       <use xlink:href="#DejaVuSans-37" x="95.410156"/>
       <use xlink:href="#DejaVuSans-35" x="159.033203"/>
      </g>
     </g>
    </g>
    <g id="xtick_9">
     <g id="line2d_9">
      <g>
       <use xlink:href="#m3b02615726" x="398.487273" y="307.584" style="stroke: #000000; stroke-width: 0.8"/>
      </g>
     </g>
     <g id="text_9">
      <!-- 2.00 -->
      <g transform="translate(387.35446 322.182437) scale(0.1 -0.1)">
       <use xlink:href="#DejaVuSans-32"/>
       <use xlink:href="#DejaVuSans-2e" x="63.623047"/>
       <use xlink:href="#DejaVuSans-30" x="95.410156"/>
       <use xlink:href="#DejaVuSans-30" x="159.033203"/>
      </g>
     </g>
    </g>
    <g id="text_10">
     <!-- Period (s) -->
     <g transform="translate(207.739688 337.38025) scale(0.12 -0.12)">
      <defs>
       <path id="DejaVuSans-50" d="M 1259 4147 
L 1259 2394 
L 2053 2394 
Q 2494 2394 2734 2622 
Q 2975 2850 2975 3272 
Q 2975 3691 2734 3919 
Q 2494 4147 2053 4147 
L 1259 4147 
z
M 628 4666 
L 2053 4666 
Q 2838 4666 3239 4311 
Q 3641 3956 3641 3272 
Q 3641 2581 3239 2228 
Q 2838 1875 2053 1875 
L 1259 1875 
L 1259 0 
L 628 0 
L 628 4666 
z
" transform="scale(0.015625)"/>
       <path id="DejaVuSans-65" d="M 3597 1894 
L 3597 1613 
L 953 1613 
Q 991 1019 1311 708 
Q 1631 397 2203 397 
Q 2534 397 2845 478 
Q 3156 559 3463 722 
L 3463 178 
Q 3153 47 2828 -22 
Q 2503 -91 2169 -91 
Q 1331 -91 842 396 
Q 353 884 353 1716 
Q 353 2575 817 3079 
Q 1281 3584 2069 3584 
Q 2775 3584 3186 3129 
Q 3597 2675 3597 1894 
z
M 3022 2063 
Q 3016 2534 2758 2815 
Q 2500 3097 2075 3097 
Q 1594 3097 1305 2825 
Q 1016 2553 972 2059 
L 3022 2063 
z
" transform="scale(0.015625)"/>
       <path id="DejaVuSans-72" d="M 2631 2963 
Q 2534 3019 2420 3045 
Q 2306 3072 2169 3072 
Q 1681 3072 1420 2755 
Q 1159 2438 1159 1844 
L 1159 0 
L 581 0 
L 581 3500 
L 1159 3500 
L 1159 2956 
Q 1341 3275 1631 3429 
Q 1922 3584 2338 3584 
Q 2397 3584 2469 3576 
Q 2541 3569 2628 3553 
L 2631 2963 
z
" transform="scale(0.015625)"/>
       <path id="DejaVuSans-69" d="M 603 3500 
L 1178 3500 
L 1178 0 
L 603 0 
L 603 3500 
z
M 603 4863 
L 1178 4863 
L 1178 4134 
L 603 4134 
L 603 4863 
z
" transform="scale(0.015625)"/>
       <path id="DejaVuSans-6f" d="M 1959 3097 
Q 1497 3097 1228 2736 
Q 959 2375 959 1747 
Q 959 1119 1226 758 
Q 1494 397 1959 397 
Q 2419 397 2687 759 
Q 2956 1122 2956 1747 
Q 2956 2369 2687 2733 
Q 2419 3097 1959 3097 
z
M 1959 3584 
Q 2709 3584 3137 3096 
Q 3566 2609 3566 1747 
Q 3566 888 3137 398 
Q 2709 -91 1959 -91 
Q 1206 -91 779 398 
Q 353 888 353 1747 
Q 353 2609 779 3096 
Q 1206 3584 1959 3584 
z
" transform="scale(0.015625)"/>
       <path id="DejaVuSans-64" d="M 2906 2969 
L 2906 4863 
L 3481 4863 
L 3481 0 
L 2906 0 
L 2906 525 
Q 2725 213 2448 61 
Q 2172 -91 1784 -91 
Q 1150 -91 751 415 
Q 353 922 353 1747 
Q 353 2572 751 3078 
Q 1150 3584 1784 3584 
Q 2172 3584 2448 3432 
Q 2725 3281 2906 2969 
z
M 947 1747 
Q 947 1113 1208 752 
Q 1469 391 1925 391 
Q 2381 391 2643 752 
Q 2906 1113 2906 1747 
Q 2906 2381 2643 2742 
Q 2381 3103 1925 3103 
Q 1469 3103 1208 2742 
Q 947 2381 947 1747 
z
" transform="scale(0.015625)"/>
       <path id="DejaVuSans-20" transform="scale(0.015625)"/>
       <path id="DejaVuSans-28" d="M 1984 4856 
Q 1566 4138 1362 3434 
Q 1159 2731 1159 2009 
Q 1159 1288 1364 580 
Q 1569 -128 1984 -844 
L 1484 -844 
Q 1016 -109 783 600 
Q 550 1309 550 2009 
Q 550 2706 781 3412 
Q 1013 4119 1484 4856 
L 1984 4856 
z
" transform="scale(0.015625)"/>
       <path id="DejaVuSans-73" d="M 2834 3397 
L 2834 2853 
Q 2591 2978 2328 3040 
Q 2066 3103 1784 3103 
Q 1356 3103 1142 2972 
Q 928 2841 928 2578 
Q 928 2378 1081 2264 
Q 1234 2150 1697 2047 
L 1894 2003 
Q 2506 1872 2764 1633 
Q 3022 1394 3022 966 
Q 3022 478 2636 193 
Q 2250 -91 1575 -91 
Q 1294 -91 989 -36 
Q 684 19 347 128 
L 347 722 
Q 666 556 975 473 
Q 1284 391 1588 391 
Q 1994 391 2212 530 
Q 2431 669 2431 922 
Q 2431 1156 2273 1281 
Q 2116 1406 1581 1522 
L 1381 1569 
Q 847 1681 609 1914 
Q 372 2147 372 2553 
Q 372 3047 722 3315 
Q 1072 3584 1716 3584 
Q 2034 3584 2315 3537 
Q 2597 3491 2834 3397 
z
" transform="scale(0.015625)"/>
       <path id="DejaVuSans-29" d="M 513 4856 
L 1013 4856 
Q 1481 4119 1714 3412 
Q 1947 2706 1947 2009 
Q 1947 1309 1714 600 
Q 1481 -109 1013 -844 
L 513 -844 
Q 928 -128 1133 580 
Q 1338 1288 1338 2009 
Q 1338 2731 1133 3434 
Q 928 4138 513 4856 
z
" transform="scale(0.015625)"/>
      </defs>
      <use xlink:href="#DejaVuSans-50"/>
      <use xlink:href="#DejaVuSans-65" x="56.677734"/>
      <use xlink:href="#DejaVuSans-72" x="118.201172"/>
      <use xlink:href="#DejaVuSans-69" x="159.314453"/>
      <use xlink:href="#DejaVuSans-6f" x="187.097656"/>
      <use xlink:href="#DejaVuSans-64" x="248.279297"/>
      <use xlink:href="#DejaVuSans-20" x="311.755859"/>
      <use xlink:href="#DejaVuSans-28" x="343.542969"/>
      <use xlink:href="#DejaVuSans-73" x="382.556641"/>
      <use xlink:href="#DejaVuSans-29" x="434.65625"/>
     </g>
    </g>
   </g>
   <g id="matplotlib.axis_2">
    <g id="ytick_1">
     <g id="line2d_10">
      <defs>
       <path id="m2565784581" d="M 0 0 
L -3.5 0 
" style="stroke: #000000; stroke-width: 0.8"/>
      </defs>
      <g>
       <use xlink:href="#m2565784581" x="57.6" y="297.125109" style="stroke: #000000; stroke-width: 0.8"/>
      </g>
     </g>
     <g id="text_11">
      <!-- 0.0 -->
      <g transform="translate(34.696875 300.924328) scale(0.1 -0.1)">
       <use xlink:href="#DejaVuSans-30"/>
       <use xlink:href="#DejaVuSans-2e" x="63.623047"/>
       <use xlink:href="#DejaVuSans-30" x="95.410156"/>
      </g>
     </g>
    </g>
    <g id="ytick_2">
     <g id="line2d_11">
      <g>
       <use xlink:href="#m2565784581" x="57.6" y="256.668226" style="stroke: #000000; stroke-width: 0.8"/>
      </g>
     </g>
     <g id="text_12">
      <!-- 0.2 -->
      <g transform="translate(34.696875 260.467445) scale(0.1 -0.1)">
       <use xlink:href="#DejaVuSans-30"/>
       <use xlink:href="#DejaVuSans-2e" x="63.623047"/>
       <use xlink:href="#DejaVuSans-32" x="95.410156"/>
      </g>
     </g>
    </g>
    <g id="ytick_3">
     <g id="line2d_12">
      <g>
       <use xlink:href="#m2565784581" x="57.6" y="216.211344" style="stroke: #000000; stroke-width: 0.8"/>
      </g>
     </g>
     <g id="text_13">
      <!-- 0.4 -->
      <g transform="translate(34.696875 220.010562) scale(0.1 -0.1)">
       <defs>
        <path id="DejaVuSans-34" d="M 2419 4116 
L 825 1625 
L 2419 1625 
L 2419 4116 
z
M 2253 4666 
L 3047 4666 
L 3047 1625 
L 3713 1625 
L 3713 1100 
L 3047 1100 
L 3047 0 
L 2419 0 
L 2419 1100 
L 313 1100 
L 313 1709 
L 2253 4666 
z
" transform="scale(0.015625)"/>
       </defs>
       <use xlink:href="#DejaVuSans-30"/>
       <use xlink:href="#DejaVuSans-2e" x="63.623047"/>
       <use xlink:href="#DejaVuSans-34" x="95.410156"/>
      </g>
     </g>
    </g>
    <g id="ytick_4">
     <g id="line2d_13">
      <g>
       <use xlink:href="#m2565784581" x="57.6" y="175.754461" style="stroke: #000000; stroke-width: 0.8"/>
      </g>
     </g>
     <g id="text_14">
      <!-- 0.6 -->
      <g transform="translate(34.696875 179.55368) scale(0.1 -0.1)">
       <defs>
        <path id="DejaVuSans-36" d="M 2113 2584 
Q 1688 2584 1439 2293 
Q 1191 2003 1191 1497 
Q 1191 994 1439 701 
Q 1688 409 2113 409 
Q 2538 409 2786 701 
Q 3034 994 3034 1497 
Q 3034 2003 2786 2293 
Q 2538 2584 2113 2584 
z
M 3366 4563 
L 3366 3988 
Q 3128 4100 2886 4159 
Q 2644 4219 2406 4219 
Q 1781 4219 1451 3797 
Q 1122 3375 1075 2522 
Q 1259 2794 1537 2939 
Q 1816 3084 2150 3084 
Q 2853 3084 3261 2657 
Q 3669 2231 3669 1497 
Q 3669 778 3244 343 
Q 2819 -91 2113 -91 
Q 1303 -91 875 529 
Q 447 1150 447 2328 
Q 447 3434 972 4092 
Q 1497 4750 2381 4750 
Q 2619 4750 2861 4703 
Q 3103 4656 3366 4563 
z
" transform="scale(0.015625)"/>
       </defs>
       <use xlink:href="#DejaVuSans-30"/>
       <use xlink:href="#DejaVuSans-2e" x="63.623047"/>
       <use xlink:href="#DejaVuSans-36" x="95.410156"/>
      </g>
     </g>
    </g>
    <g id="ytick_5">
     <g id="line2d_14">
      <g>
       <use xlink:href="#m2565784581" x="57.6" y="135.297578" style="stroke: #000000; stroke-width: 0.8"/>
      </g>
     </g>
     <g id="text_15">
      <!-- 0.8 -->
      <g transform="translate(34.696875 139.096797) scale(0.1 -0.1)">
       <defs>
        <path id="DejaVuSans-38" d="M 2034 2216 
Q 1584 2216 1326 1975 
Q 1069 1734 1069 1313 
Q 1069 891 1326 650 
Q 1584 409 2034 409 
Q 2484 409 2743 651 
Q 3003 894 3003 1313 
Q 3003 1734 2745 1975 
Q 2488 2216 2034 2216 
z
M 1403 2484 
Q 997 2584 770 2862 
Q 544 3141 544 3541 
Q 544 4100 942 4425 
Q 1341 4750 2034 4750 
Q 2731 4750 3128 4425 
Q 3525 4100 3525 3541 
Q 3525 3141 3298 2862 
Q 3072 2584 2669 2484 
Q 3125 2378 3379 2068 
Q 3634 1759 3634 1313 
Q 3634 634 3220 271 
Q 2806 -91 2034 -91 
Q 1263 -91 848 271 
Q 434 634 434 1313 
Q 434 1759 690 2068 
Q 947 2378 1403 2484 
z
M 1172 3481 
Q 1172 3119 1398 2916 
Q 1625 2713 2034 2713 
Q 2441 2713 2670 2916 
Q 2900 3119 2900 3481 
Q 2900 3844 2670 4047 
Q 2441 4250 2034 4250 
Q 1625 4250 1398 4047 
Q 1172 3844 1172 3481 
z
" transform="scale(0.015625)"/>
       </defs>
       <use xlink:href="#DejaVuSans-30"/>
       <use xlink:href="#DejaVuSans-2e" x="63.623047"/>
       <use xlink:href="#DejaVuSans-38" x="95.410156"/>
      </g>
     </g>
    </g>
    <g id="ytick_6">
     <g id="line2d_15">
      <g>
       <use xlink:href="#m2565784581" x="57.6" y="94.840696" style="stroke: #000000; stroke-width: 0.8"/>
      </g>
     </g>
     <g id="text_16">
      <!-- 1.0 -->
      <g transform="translate(34.696875 98.639914) scale(0.1 -0.1)">
       <use xlink:href="#DejaVuSans-31"/>
       <use xlink:href="#DejaVuSans-2e" x="63.623047"/>
       <use xlink:href="#DejaVuSans-30" x="95.410156"/>
      </g>
     </g>
    </g>
    <g id="ytick_7">
     <g id="line2d_16">
      <g>
       <use xlink:href="#m2565784581" x="57.6" y="54.383813" style="stroke: #000000; stroke-width: 0.8"/>
      </g>
     </g>
     <g id="text_17">
      <!-- 1.2 -->
      <g transform="translate(34.696875 58.183032) scale(0.1 -0.1)">
       <use xlink:href="#DejaVuSans-31"/>
       <use xlink:href="#DejaVuSans-2e" x="63.623047"/>
       <use xlink:href="#DejaVuSans-32" x="95.410156"/>
      </g>
     </g>
    </g>
    <g id="text_18">
     <!-- Spectral Acceleration (g) -->
     <g transform="translate(28.20125 248.888625) rotate(-90) scale(0.12 -0.12)">
      <defs>
       <path id="DejaVuSans-53" d="M 3425 4513 
L 3425 3897 
Q 3066 4069 2747 4153 
Q 2428 4238 2131 4238 
Q 1616 4238 1336 4038 
Q 1056 3838 1056 3469 
Q 1056 3159 1242 3001 
Q 1428 2844 1947 2747 
L 2328 2669 
Q 3034 2534 3370 2195 
Q 3706 1856 3706 1288 
Q 3706 609 3251 259 
Q 2797 -91 1919 -91 
Q 1588 -91 1214 -16 
Q 841 59 441 206 
L 441 856 
Q 825 641 1194 531 
Q 1563 422 1919 422 
Q 2459 422 2753 634 
Q 3047 847 3047 1241 
Q 3047 1584 2836 1778 
Q 2625 1972 2144 2069 
L 1759 2144 
Q 1053 2284 737 2584 
Q 422 2884 422 3419 
Q 422 4038 858 4394 
Q 1294 4750 2059 4750 
Q 2388 4750 2728 4690 
Q 3069 4631 3425 4513 
z
" transform="scale(0.015625)"/>
       <path id="DejaVuSans-70" d="M 1159 525 
L 1159 -1331 
L 581 -1331 
L 581 3500 
L 1159 3500 
L 1159 2969 
Q 1341 3281 1617 3432 
Q 1894 3584 2278 3584 
Q 2916 3584 3314 3078 
Q 3713 2572 3713 1747 
Q 3713 922 3314 415 
Q 2916 -91 2278 -91 
Q 1894 -91 1617 61 
Q 1341 213 1159 525 
z
M 3116 1747 
Q 3116 2381 2855 2742 
Q 2594 3103 2138 3103 
Q 1681 3103 1420 2742 
Q 1159 2381 1159 1747 
Q 1159 1113 1420 752 
Q 1681 391 2138 391 
Q 2594 391 2855 752 
Q 3116 1113 3116 1747 
z
" transform="scale(0.015625)"/>
       <path id="DejaVuSans-63" d="M 3122 3366 
L 3122 2828 
Q 2878 2963 2633 3030 
Q 2388 3097 2138 3097 
Q 1578 3097 1268 2742 
Q 959 2388 959 1747 
Q 959 1106 1268 751 
Q 1578 397 2138 397 
Q 2388 397 2633 464 
Q 2878 531 3122 666 
L 3122 134 
Q 2881 22 2623 -34 
Q 2366 -91 2075 -91 
Q 1284 -91 818 406 
Q 353 903 353 1747 
Q 353 2603 823 3093 
Q 1294 3584 2113 3584 
Q 2378 3584 2631 3529 
Q 2884 3475 3122 3366 
z
" transform="scale(0.015625)"/>
       <path id="DejaVuSans-74" d="M 1172 4494 
L 1172 3500 
L 2356 3500 
L 2356 3053 
L 1172 3053 
L 1172 1153 
Q 1172 725 1289 603 
Q 1406 481 1766 481 
L 2356 481 
L 2356 0 
L 1766 0 
Q 1100 0 847 248 
Q 594 497 594 1153 
L 594 3053 
L 172 3053 
L 172 3500 
L 594 3500 
L 594 4494 
L 1172 4494 
z
" transform="scale(0.015625)"/>
       <path id="DejaVuSans-61" d="M 2194 1759 
Q 1497 1759 1228 1600 
Q 959 1441 959 1056 
Q 959 750 1161 570 
Q 1363 391 1709 391 
Q 2188 391 2477 730 
Q 2766 1069 2766 1631 
L 2766 1759 
L 2194 1759 
z
M 3341 1997 
L 3341 0 
L 2766 0 
L 2766 531 
Q 2569 213 2275 61 
Q 1981 -91 1556 -91 
Q 1019 -91 701 211 
Q 384 513 384 1019 
Q 384 1609 779 1909 
Q 1175 2209 1959 2209 
L 2766 2209 
L 2766 2266 
Q 2766 2663 2505 2880 
Q 2244 3097 1772 3097 
Q 1472 3097 1187 3025 
Q 903 2953 641 2809 
L 641 3341 
Q 956 3463 1253 3523 
Q 1550 3584 1831 3584 
Q 2591 3584 2966 3190 
Q 3341 2797 3341 1997 
z
" transform="scale(0.015625)"/>
       <path id="DejaVuSans-6c" d="M 603 4863 
L 1178 4863 
L 1178 0 
L 603 0 
L 603 4863 
z
" transform="scale(0.015625)"/>
       <path id="DejaVuSans-41" d="M 2188 4044 
L 1331 1722 
L 3047 1722 
L 2188 4044 
z
M 1831 4666 
L 2547 4666 
L 4325 0 
L 3669 0 
L 3244 1197 
L 1141 1197 
L 716 0 
L 50 0 
L 1831 4666 
z
" transform="scale(0.015625)"/>
       <path id="DejaVuSans-6e" d="M 3513 2113 
L 3513 0 
L 2938 0 
L 2938 2094 
Q 2938 2591 2744 2837 
Q 2550 3084 2163 3084 
Q 1697 3084 1428 2787 
Q 1159 2491 1159 1978 
L 1159 0 
L 581 0 
L 581 3500 
L 1159 3500 
L 1159 2956 
Q 1366 3272 1645 3428 
Q 1925 3584 2291 3584 
Q 2894 3584 3203 3211 
Q 3513 2838 3513 2113 
z
" transform="scale(0.015625)"/>
       <path id="DejaVuSans-67" d="M 2906 1791 
Q 2906 2416 2648 2759 
Q 2391 3103 1925 3103 
Q 1463 3103 1205 2759 
Q 947 2416 947 1791 
Q 947 1169 1205 825 
Q 1463 481 1925 481 
Q 2391 481 2648 825 
Q 2906 1169 2906 1791 
z
M 3481 434 
Q 3481 -459 3084 -895 
Q 2688 -1331 1869 -1331 
Q 1566 -1331 1297 -1286 
Q 1028 -1241 775 -1147 
L 775 -588 
Q 1028 -725 1275 -790 
Q 1522 -856 1778 -856 
Q 2344 -856 2625 -561 
Q 2906 -266 2906 331 
L 2906 616 
Q 2728 306 2450 153 
Q 2172 0 1784 0 
Q 1141 0 747 490 
Q 353 981 353 1791 
Q 353 2603 747 3093 
Q 1141 3584 1784 3584 
Q 2172 3584 2450 3431 
Q 2728 3278 2906 2969 
L 2906 3500 
L 3481 3500 
L 3481 434 
z
" transform="scale(0.015625)"/>
      </defs>
      <use xlink:href="#DejaVuSans-53"/>
      <use xlink:href="#DejaVuSans-70" x="63.476562"/>
      <use xlink:href="#DejaVuSans-65" x="126.953125"/>
      <use xlink:href="#DejaVuSans-63" x="188.476562"/>
      <use xlink:href="#DejaVuSans-74" x="243.457031"/>
      <use xlink:href="#DejaVuSans-72" x="282.666016"/>
      <use xlink:href="#DejaVuSans-61" x="323.779297"/>
      <use xlink:href="#DejaVuSans-6c" x="385.058594"/>
      <use xlink:href="#DejaVuSans-20" x="412.841797"/>
      <use xlink:href="#DejaVuSans-41" x="444.628906"/>
      <use xlink:href="#DejaVuSans-63" x="511.287109"/>
      <use xlink:href="#DejaVuSans-63" x="566.267578"/>
      <use xlink:href="#DejaVuSans-65" x="621.248047"/>
      <use xlink:href="#DejaVuSans-6c" x="682.771484"/>
      <use xlink:href="#DejaVuSans-65" x="710.554688"/>
      <use xlink:href="#DejaVuSans-72" x="772.078125"/>
      <use xlink:href="#DejaVuSans-61" x="813.191406"/>
      <use xlink:href="#DejaVuSans-74" x="874.470703"/>
      <use xlink:href="#DejaVuSans-69" x="913.679688"/>
      <use xlink:href="#DejaVuSans-6f" x="941.462891"/>
      <use xlink:href="#DejaVuSans-6e" x="1002.644531"/>
      <use xlink:href="#DejaVuSans-20" x="1066.023438"/>
      <use xlink:href="#DejaVuSans-28" x="1097.810547"/>
      <use xlink:href="#DejaVuSans-67" x="1136.824219"/>
      <use xlink:href="#DejaVuSans-29" x="1200.300781"/>
     </g>
    </g>
   </g>
   <g id="line2d_17">
    <path d="M 73.832727 242.175074 
L 90.065455 163.95424 
L 106.298182 177.433462 
L 122.530909 209.926225 
L 171.229091 253.424333 
L 236.16 271.880237 
L 398.487273 286.634864 
" clip-path="url(#pc6ae16dc19)" style="fill: none; stroke: #008000; stroke-width: 1.5; stroke-linecap: square"/>
   </g>
   <g id="line2d_18">
    <path d="M 73.832727 286.518864 
L 90.065455 272.24708 
L 106.298182 276.464952 
L 122.530909 282.327897 
L 171.229091 290.083949 
L 236.16 293.257174 
L 398.487273 295.488 
" clip-path="url(#pc6ae16dc19)" style="fill: none; stroke: #0000ff; stroke-width: 1.5; stroke-linecap: square"/>
   </g>
   <g id="line2d_19">
    <path d="M 73.832727 274.770133 
L 90.065455 248.764084 
L 106.298182 253.112087 
L 122.530909 262.37825 
L 171.229091 275.566203 
L 236.16 283.056388 
L 398.487273 290.04903 
" clip-path="url(#pc6ae16dc19)" style="fill: none; stroke: #ff0000; stroke-width: 1.5; stroke-linecap: square"/>
   </g>
   <g id="line2d_20">
    <path d="M 73.832727 197.107604 
L 90.065455 53.568 
L 106.298182 73.127082 
L 122.530909 131.135314 
L 171.229091 209.461558 
L 236.16 244.699219 
L 398.487273 275.006805 
" clip-path="url(#pc6ae16dc19)" style="fill: none; stroke-dasharray: 5.55,2.4; stroke-dashoffset: 0; stroke: #008000; stroke-width: 1.5"/>
   </g>
   <g id="line2d_21">
    <path d="M 73.832727 273.580619 
L 90.065455 240.251835 
L 106.298182 249.662005 
L 122.530909 263.426043 
L 171.229091 280.754972 
L 236.16 287.813138 
L 398.487273 293.016389 
" clip-path="url(#pc6ae16dc19)" style="fill: none; stroke-dasharray: 5.55,2.4; stroke-dashoffset: 0; stroke: #0000ff; stroke-width: 1.5"/>
   </g>
   <g id="line2d_22">
    <path d="M 73.832727 254.677707 
L 90.065455 202.259039 
L 106.298182 210.691568 
L 122.530909 228.892432 
L 171.229091 253.691591 
L 236.16 267.917586 
L 398.487273 282.432126 
" clip-path="url(#pc6ae16dc19)" style="fill: none; stroke-dasharray: 5.55,2.4; stroke-dashoffset: 0; stroke: #ff0000; stroke-width: 1.5"/>
   </g>
   <g id="line2d_23">
    <path d="M 73.832727 253.431676 
L 77.112066 242.643174 
L 80.391405 231.854672 
L 83.670744 221.06617 
L 86.950083 210.277668 
L 90.229421 200.028591 
L 93.50876 200.028591 
L 96.788099 200.028591 
L 100.067438 200.028591 
L 103.346777 200.028591 
L 106.626116 200.028591 
L 109.905455 200.028591 
L 113.184793 200.028591 
L 116.464132 200.028591 
L 119.743471 200.028591 
L 123.02281 200.028591 
L 126.302149 200.028591 
L 129.581488 200.028591 
L 132.860826 203.311829 
L 136.140165 207.767542 
L 139.419504 211.798874 
L 142.698843 215.464576 
L 145.978182 218.812956 
L 149.257521 221.884115 
L 152.53686 224.711622 
L 155.816198 227.3238 
L 159.095537 229.744712 
L 162.374876 231.994942 
L 165.654215 234.0922 
L 168.933554 236.05181 
L 172.212893 237.887101 
L 175.492231 239.609721 
L 178.77157 241.229898 
L 182.050909 242.756649 
L 185.330248 244.197954 
L 188.609587 245.560903 
L 191.888926 246.851817 
L 195.168264 248.07635 
L 198.447603 249.239574 
L 201.726942 250.346056 
L 205.006281 251.399912 
L 208.28562 252.404871 
L 211.564959 253.364313 
L 214.844298 254.281311 
L 218.123636 255.158665 
L 221.402975 255.998934 
L 224.682314 256.804459 
L 227.961653 257.577384 
L 231.240992 258.319682 
L 234.520331 259.033168 
L 237.799669 259.719514 
L 241.079008 260.380264 
L 244.358347 261.016848 
L 247.637686 261.63059 
L 250.917025 262.222717 
L 254.196364 262.79437 
L 257.475702 263.34661 
L 260.755041 263.880425 
L 264.03438 264.396739 
L 267.313719 264.896411 
L 270.593058 265.380246 
L 273.872397 265.848999 
L 277.151736 266.303376 
L 280.431074 266.744038 
L 283.710413 267.171607 
L 286.989752 267.586669 
L 290.269091 267.989773 
L 293.54843 268.381437 
L 296.827769 268.762149 
L 300.107107 269.13237 
L 303.386446 269.492535 
L 306.665785 269.843055 
L 309.945124 270.184319 
L 313.224463 270.516694 
L 316.503802 270.84053 
L 319.78314 271.156156 
L 323.062479 271.463886 
L 326.341818 271.764018 
L 329.621157 272.056835 
L 332.900496 272.342604 
L 336.179835 272.621583 
L 339.459174 272.894013 
L 342.738512 273.160127 
L 346.017851 273.420145 
L 349.29719 273.674279 
L 352.576529 273.922729 
L 355.855868 274.165686 
L 359.135207 274.329539 
L 362.414545 274.36877 
L 365.693884 274.408 
L 368.973223 274.447231 
L 372.252562 274.486462 
L 375.531901 274.525693 
L 378.81124 274.564924 
L 382.090579 274.604155 
L 385.369917 274.643386 
L 388.649256 274.682617 
L 391.928595 274.721848 
L 395.207934 274.761079 
L 398.487273 274.80031 
" clip-path="url(#pc6ae16dc19)" style="fill: none; stroke: #008000; stroke-width: 1.5; stroke-linecap: square"/>
   </g>
   <g id="line2d_24">
    <path d="M 73.832727 215.199922 
L 77.112066 194.97148 
L 80.391405 174.743039 
L 83.670744 154.514598 
L 86.950083 134.286156 
L 90.229421 115.069137 
L 93.50876 115.069137 
L 96.788099 115.069137 
L 100.067438 115.069137 
L 103.346777 115.069137 
L 106.626116 115.069137 
L 109.905455 115.069137 
L 113.184793 115.069137 
L 116.464132 115.069137 
L 119.743471 115.069137 
L 123.02281 115.069137 
L 126.302149 115.069137 
L 129.581488 115.069137 
L 132.860826 121.225208 
L 136.140165 129.579671 
L 139.419504 137.138419 
L 142.698843 144.011609 
L 145.978182 150.289822 
L 149.257521 156.048245 
L 152.53686 161.349822 
L 155.816198 166.247654 
L 159.095537 170.786865 
L 162.374876 175.006047 
L 165.654215 178.938405 
L 168.933554 182.612674 
L 172.212893 186.053844 
L 175.492231 189.283757 
L 178.77157 192.321589 
L 182.050909 195.184247 
L 185.330248 197.886693 
L 188.609587 200.442222 
L 191.888926 202.862686 
L 195.168264 205.158686 
L 198.447603 207.339732 
L 201.726942 209.414384 
L 205.006281 211.390365 
L 208.28562 213.274663 
L 211.564959 215.073616 
L 214.844298 216.792987 
L 218.123636 218.438027 
L 221.402975 220.013532 
L 224.682314 221.52389 
L 227.961653 222.973125 
L 231.240992 224.364934 
L 234.520331 225.702719 
L 237.799669 226.989618 
L 241.079008 228.228525 
L 244.358347 229.422121 
L 247.637686 230.572886 
L 250.917025 231.683124 
L 254.196364 232.754973 
L 257.475702 233.790423 
L 260.755041 234.791327 
L 264.03438 235.759414 
L 267.313719 236.6963 
L 270.593058 237.603492 
L 273.872397 238.482404 
L 277.151736 239.334359 
L 280.431074 240.160601 
L 283.710413 240.962293 
L 286.989752 241.740534 
L 290.269091 242.496354 
L 293.54843 243.230723 
L 296.827769 243.944559 
L 300.107107 244.638723 
L 303.386446 245.314033 
L 306.665785 245.971258 
L 309.945124 246.611127 
L 313.224463 247.234331 
L 316.503802 247.841523 
L 319.78314 248.433322 
L 323.062479 249.010317 
L 326.341818 249.573064 
L 329.621157 250.122095 
L 332.900496 250.657913 
L 336.179835 251.180997 
L 339.459174 251.691804 
L 342.738512 252.190768 
L 346.017851 252.678302 
L 349.29719 253.154803 
L 352.576529 253.620646 
L 355.855868 254.076191 
L 359.135207 254.383415 
L 362.414545 254.456973 
L 365.693884 254.53053 
L 368.973223 254.604088 
L 372.252562 254.677646 
L 375.531901 254.751204 
L 378.81124 254.824762 
L 382.090579 254.89832 
L 385.369917 254.971878 
L 388.649256 255.045436 
L 391.928595 255.118994 
L 395.207934 255.192552 
L 398.487273 255.26611 
" clip-path="url(#pc6ae16dc19)" style="fill: none; stroke-dasharray: 5.55,2.4; stroke-dashoffset: 0; stroke: #008000; stroke-width: 1.5"/>
   </g>
   <g id="line2d_25">
    <path d="M 73.832727 275.278392 
L 77.112066 269.884141 
L 80.391405 264.48989 
L 83.670744 259.095639 
L 86.950083 253.701388 
L 90.229421 248.57685 
L 93.50876 248.57685 
L 96.788099 248.57685 
L 100.067438 248.57685 
L 103.346777 248.57685 
L 106.626116 248.57685 
L 109.905455 248.57685 
L 113.184793 248.57685 
L 116.464132 248.57685 
L 119.743471 248.57685 
L 123.02281 248.57685 
L 126.302149 248.57685 
L 129.581488 248.57685 
L 132.860826 250.218469 
L 136.140165 252.446325 
L 139.419504 254.461992 
L 142.698843 256.294842 
L 145.978182 257.969033 
L 149.257521 259.504612 
L 152.53686 260.918366 
L 155.816198 262.224454 
L 159.095537 263.434911 
L 162.374876 264.560026 
L 165.654215 265.608655 
L 168.933554 266.58846 
L 172.212893 267.506105 
L 175.492231 268.367415 
L 178.77157 269.177504 
L 182.050909 269.940879 
L 185.330248 270.661531 
L 188.609587 271.343006 
L 191.888926 271.988463 
L 195.168264 272.600729 
L 198.447603 273.182342 
L 201.726942 273.735582 
L 205.006281 274.262511 
L 208.28562 274.76499 
L 211.564959 275.244711 
L 214.844298 275.70321 
L 218.123636 276.141887 
L 221.402975 276.562022 
L 224.682314 276.964784 
L 227.961653 277.351247 
L 231.240992 277.722396 
L 234.520331 278.079138 
L 237.799669 278.422311 
L 241.079008 278.752687 
L 244.358347 279.070979 
L 247.637686 279.37785 
L 250.917025 279.673913 
L 254.196364 279.959739 
L 257.475702 280.235859 
L 260.755041 280.502767 
L 264.03438 280.760924 
L 267.313719 281.01076 
L 270.593058 281.252678 
L 273.872397 281.487054 
L 277.151736 281.714242 
L 280.431074 281.934573 
L 283.710413 282.148358 
L 286.989752 282.355889 
L 290.269091 282.557441 
L 293.54843 282.753273 
L 296.827769 282.943629 
L 300.107107 283.128739 
L 303.386446 283.308822 
L 306.665785 283.484082 
L 309.945124 283.654714 
L 313.224463 283.820902 
L 316.503802 283.982819 
L 319.78314 284.140633 
L 323.062479 284.294498 
L 326.341818 284.444564 
L 329.621157 284.590972 
L 332.900496 284.733857 
L 336.179835 284.873346 
L 339.459174 285.009561 
L 342.738512 285.142618 
L 346.017851 285.272627 
L 349.29719 285.399694 
L 352.576529 285.523919 
L 355.855868 285.645397 
L 359.135207 285.727324 
L 362.414545 285.746939 
L 365.693884 285.766555 
L 368.973223 285.78617 
L 372.252562 285.805786 
L 375.531901 285.825401 
L 378.81124 285.845017 
L 382.090579 285.864632 
L 385.369917 285.884247 
L 388.649256 285.903863 
L 391.928595 285.923478 
L 395.207934 285.943094 
L 398.487273 285.962709 
" clip-path="url(#pc6ae16dc19)" style="fill: none; stroke: #0000ff; stroke-width: 1.5; stroke-linecap: square"/>
   </g>
   <g id="line2d_26">
    <path d="M 73.832727 251.611116 
L 77.112066 240.373093 
L 80.391405 229.13507 
L 83.670744 217.897047 
L 86.950083 206.659024 
L 90.229421 195.982902 
L 93.50876 195.982902 
L 96.788099 195.982902 
L 100.067438 195.982902 
L 103.346777 195.982902 
L 106.626116 195.982902 
L 109.905455 195.982902 
L 113.184793 195.982902 
L 116.464132 195.982902 
L 119.743471 195.982902 
L 123.02281 195.982902 
L 126.302149 195.982902 
L 129.581488 195.982902 
L 132.860826 199.402942 
L 136.140165 204.04431 
L 139.419504 208.243615 
L 142.698843 212.062054 
L 145.978182 215.54995 
L 149.257521 218.749074 
L 152.53686 221.694394 
L 155.816198 224.415412 
L 159.095537 226.937196 
L 162.374876 229.281186 
L 165.654215 231.465829 
L 168.933554 233.507089 
L 172.212893 235.41885 
L 175.492231 237.213247 
L 178.77157 238.900931 
L 182.050909 240.491297 
L 185.330248 241.992656 
L 188.609587 243.412394 
L 191.888926 244.757096 
L 195.168264 246.032652 
L 198.447603 247.244344 
L 201.726942 248.396928 
L 205.006281 249.494696 
L 208.28562 250.541528 
L 211.564959 251.540946 
L 214.844298 252.496152 
L 218.123636 253.410064 
L 221.402975 254.285344 
L 224.682314 255.124432 
L 227.961653 255.929562 
L 231.240992 256.70279 
L 234.520331 257.446004 
L 237.799669 258.160947 
L 241.079008 258.849229 
L 244.358347 259.512338 
L 247.637686 260.151652 
L 250.917025 260.768451 
L 254.196364 261.363922 
L 257.475702 261.939172 
L 260.755041 262.49523 
L 264.03438 263.033056 
L 267.313719 263.553548 
L 270.593058 264.057544 
L 273.872397 264.545828 
L 277.151736 265.019137 
L 280.431074 265.47816 
L 283.710413 265.923545 
L 286.989752 266.355901 
L 290.269091 266.7758 
L 293.54843 267.183784 
L 296.827769 267.580359 
L 300.107107 267.966006 
L 303.386446 268.341178 
L 306.665785 268.706303 
L 309.945124 269.061786 
L 313.224463 269.40801 
L 316.503802 269.745339 
L 319.78314 270.074116 
L 323.062479 270.394669 
L 326.341818 270.707306 
L 329.621157 271.012324 
L 332.900496 271.31 
L 336.179835 271.600602 
L 339.459174 271.884384 
L 342.738512 272.161586 
L 346.017851 272.432439 
L 349.29719 272.697161 
L 352.576529 272.955963 
L 355.855868 273.209043 
L 359.135207 273.379723 
L 362.414545 273.420589 
L 365.693884 273.461454 
L 368.973223 273.50232 
L 372.252562 273.543185 
L 375.531901 273.584051 
L 378.81124 273.624916 
L 382.090579 273.665782 
L 385.369917 273.706648 
L 388.649256 273.747513 
L 391.928595 273.788379 
L 395.207934 273.829244 
L 398.487273 273.87011 
" clip-path="url(#pc6ae16dc19)" style="fill: none; stroke-dasharray: 5.55,2.4; stroke-dashoffset: 0; stroke: #0000ff; stroke-width: 1.5"/>
   </g>
   <g id="line2d_27">
    <path d="M 73.832727 251.611116 
L 77.112066 240.373093 
L 80.391405 229.13507 
L 83.670744 217.897047 
L 86.950083 206.659024 
L 90.229421 195.982902 
L 93.50876 195.982902 
L 96.788099 195.982902 
L 100.067438 195.982902 
L 103.346777 195.982902 
L 106.626116 195.982902 
L 109.905455 195.982902 
L 113.184793 195.982902 
L 116.464132 195.982902 
L 119.743471 195.982902 
L 123.02281 195.982902 
L 126.302149 195.982902 
L 129.581488 195.982902 
L 132.860826 195.982902 
L 136.140165 195.982902 
L 139.419504 195.982902 
L 142.698843 195.982902 
L 145.978182 195.982902 
L 149.257521 198.856838 
L 152.53686 202.549696 
L 155.816198 205.961322 
L 159.095537 209.123147 
L 162.374876 212.062054 
L 165.654215 214.801171 
L 168.933554 217.360513 
L 172.212893 219.757489 
L 175.492231 222.007312 
L 178.77157 224.12334 
L 182.050909 226.117348 
L 185.330248 227.999759 
L 188.609587 229.779835 
L 191.888926 231.465829 
L 195.168264 233.065127 
L 198.447603 234.584353 
L 201.726942 236.029469 
L 205.006281 237.405855 
L 208.28562 238.718379 
L 211.564959 239.971455 
L 214.844298 241.169097 
L 218.123636 242.314963 
L 221.402975 243.412394 
L 224.682314 244.464447 
L 227.961653 245.473924 
L 231.240992 246.4434 
L 234.520331 247.375245 
L 237.799669 248.271645 
L 241.079008 249.134616 
L 244.358347 249.966025 
L 247.637686 250.767601 
L 250.917025 251.540946 
L 254.196364 252.287552 
L 257.475702 253.008803 
L 260.755041 253.705991 
L 264.03438 254.380321 
L 267.313719 255.032916 
L 270.593058 255.664828 
L 273.872397 256.277042 
L 277.151736 256.870478 
L 280.431074 257.446004 
L 283.710413 258.00443 
L 286.989752 258.54652 
L 290.269091 259.072992 
L 293.54843 259.584523 
L 296.827769 260.081751 
L 300.107107 260.565278 
L 303.386446 261.03567 
L 306.665785 261.493466 
L 309.945124 261.939172 
L 313.224463 262.37327 
L 316.503802 262.796214 
L 319.78314 263.208437 
L 323.062479 263.610348 
L 326.341818 264.002334 
L 329.621157 264.384766 
L 332.900496 264.757995 
L 336.179835 265.122353 
L 339.459174 265.47816 
L 342.738512 265.825717 
L 346.017851 266.165314 
L 349.29719 266.497224 
L 352.576529 266.821711 
L 355.855868 267.139025 
L 359.135207 267.449404 
L 362.414545 267.753079 
L 365.693884 268.050267 
L 368.973223 268.341178 
L 372.252562 268.626011 
L 375.531901 268.904959 
L 378.81124 269.178204 
L 382.090579 269.445924 
L 385.369917 269.708286 
L 388.649256 269.965454 
L 391.928595 270.217581 
L 395.207934 270.464817 
L 398.487273 270.707306 
" clip-path="url(#pc6ae16dc19)" style="fill: none; stroke: #ff0000; stroke-width: 1.5; stroke-linecap: square"/>
   </g>
   <g id="line2d_28">
    <path d="M 73.832727 213.379362 
L 77.112066 192.7014 
L 80.391405 172.023437 
L 83.670744 151.345475 
L 86.950083 130.667513 
L 90.229421 111.023449 
L 93.50876 111.023449 
L 96.788099 111.023449 
L 100.067438 111.023449 
L 103.346777 111.023449 
L 106.626116 111.023449 
L 109.905455 111.023449 
L 113.184793 111.023449 
L 116.464132 111.023449 
L 119.743471 111.023449 
L 123.02281 111.023449 
L 126.302149 111.023449 
L 129.581488 111.023449 
L 132.860826 111.023449 
L 136.140165 111.023449 
L 139.419504 111.023449 
L 142.698843 111.023449 
L 145.978182 111.023449 
L 149.257521 116.311491 
L 152.53686 123.106348 
L 155.816198 129.383741 
L 159.095537 135.2015 
L 162.374876 140.609087 
L 165.654215 145.649063 
L 168.933554 150.358253 
L 172.212893 154.768688 
L 175.492231 158.908363 
L 178.77157 162.801854 
L 182.050909 166.470828 
L 185.330248 169.934466 
L 188.609587 173.209804 
L 191.888926 176.312034 
L 195.168264 179.254742 
L 198.447603 182.050117 
L 201.726942 184.709131 
L 205.006281 187.241682 
L 208.28562 189.656725 
L 211.564959 191.962385 
L 214.844298 194.166047 
L 218.123636 196.274441 
L 221.402975 198.293714 
L 224.682314 200.22949 
L 227.961653 202.086928 
L 231.240992 203.870764 
L 234.520331 205.58536 
L 237.799669 207.234735 
L 241.079008 208.822603 
L 244.358347 210.352395 
L 247.637686 211.827294 
L 250.917025 213.25025 
L 254.196364 214.624003 
L 257.475702 215.951106 
L 260.755041 217.233932 
L 264.03438 218.474698 
L 267.313719 219.675473 
L 270.593058 220.838192 
L 273.872397 221.964665 
L 277.151736 223.056589 
L 280.431074 224.115555 
L 283.710413 225.143059 
L 286.989752 226.140504 
L 290.269091 227.109214 
L 293.54843 228.050431 
L 296.827769 228.965331 
L 300.107107 229.855019 
L 303.386446 230.720541 
L 306.665785 231.562885 
L 309.945124 232.382985 
L 313.224463 233.181725 
L 316.503802 233.959943 
L 319.78314 234.718433 
L 323.062479 235.457948 
L 326.341818 236.179203 
L 329.621157 236.882878 
L 332.900496 237.569618 
L 336.179835 238.240038 
L 339.459174 238.894723 
L 342.738512 239.534228 
L 346.017851 240.159085 
L 349.29719 240.7698 
L 352.576529 241.366856 
L 355.855868 241.950714 
L 359.135207 242.521813 
L 362.414545 243.080574 
L 365.693884 243.6274 
L 368.973223 244.162676 
L 372.252562 244.686769 
L 375.531901 245.200033 
L 378.81124 245.702805 
L 382.090579 246.195409 
L 385.369917 246.678156 
L 388.649256 247.151343 
L 391.928595 247.615257 
L 395.207934 248.070172 
L 398.487273 248.516352 
" clip-path="url(#pc6ae16dc19)" style="fill: none; stroke-dasharray: 5.55,2.4; stroke-dashoffset: 0; stroke: #ff0000; stroke-width: 1.5"/>
   </g>
   <g id="patch_3">
    <path d="M 57.6 307.584 
L 57.6 41.472 
" style="fill: none; stroke: #000000; stroke-width: 0.8; stroke-linejoin: miter; stroke-linecap: square"/>
   </g>
   <g id="patch_4">
    <path d="M 414.72 307.584 
L 414.72 41.472 
" style="fill: none; stroke: #000000; stroke-width: 0.8; stroke-linejoin: miter; stroke-linecap: square"/>
   </g>
   <g id="patch_5">
    <path d="M 57.6 307.584 
L 414.72 307.584 
" style="fill: none; stroke: #000000; stroke-width: 0.8; stroke-linejoin: miter; stroke-linecap: square"/>
   </g>
   <g id="patch_6">
    <path d="M 57.6 41.472 
L 414.72 41.472 
" style="fill: none; stroke: #000000; stroke-width: 0.8; stroke-linejoin: miter; stroke-linecap: square"/>
   </g>
   <g id="legend_1">
    <g id="patch_7">
     <path d="M 285.72 220.956375 
L 407.72 220.956375 
Q 409.72 220.956375 409.72 218.956375 
L 409.72 48.472 
Q 409.72 46.472 407.72 46.472 
L 285.72 46.472 
Q 283.72 46.472 283.72 48.472 
L 283.72 218.956375 
Q 283.72 220.956375 285.72 220.956375 
z
" style="fill: #ffffff; opacity: 0.8; stroke: #cccccc; stroke-linejoin: miter"/>
    </g>
    <g id="line2d_29">
     <path d="M 287.72 55.018875 
L 297.72 55.018875 
L 307.72 55.018875 
" style="fill: none; stroke: #008000; stroke-width: 1.5; stroke-linecap: square"/>
    </g>
    <g id="text_19">
     <!-- POE=0.002105, 汶川 -->
     <g transform="translate(315.72 58.518875) scale(0.1 -0.1)">
      <defs>
       <path id="SimHei-50" d="M 2950 3100 
Q 2950 2500 2600 2150 
Q 2250 1800 1625 1800 
L 900 1800 
L 900 125 
L 325 125 
L 325 4400 
L 1625 4400 
Q 2250 4400 2600 4050 
Q 2950 3700 2950 3100 
z
M 2375 3100 
Q 2375 3575 2150 3750 
Q 1925 3925 1475 3925 
L 900 3925 
L 900 2275 
L 1475 2275 
Q 1925 2275 2150 2450 
Q 2375 2625 2375 3100 
z
" transform="scale(0.015625)"/>
       <path id="SimHei-4f" d="M 2950 2275 
Q 2950 1100 2587 587 
Q 2225 75 1575 75 
Q 925 75 550 587 
Q 175 1100 175 2275 
Q 175 3450 550 3950 
Q 925 4450 1575 4450 
Q 2225 4450 2587 3950 
Q 2950 3450 2950 2275 
z
M 2350 2275 
Q 2350 3325 2125 3650 
Q 1900 3975 1575 3975 
Q 1250 3975 1012 3650 
Q 775 3325 775 2275 
Q 775 1225 1012 887 
Q 1250 550 1575 550 
Q 1900 550 2125 887 
Q 2350 1225 2350 2275 
z
" transform="scale(0.015625)"/>
       <path id="SimHei-45" d="M 2900 125 
L 350 125 
L 350 4400 
L 2775 4400 
L 2775 3925 
L 925 3925 
L 925 2600 
L 2625 2600 
L 2625 2125 
L 925 2125 
L 925 600 
L 2900 600 
L 2900 125 
z
" transform="scale(0.015625)"/>
       <path id="SimHei-3d" d="M 2975 2900 
L 125 2900 
L 125 3300 
L 2975 3300 
L 2975 2900 
z
M 2975 1375 
L 125 1375 
L 125 1775 
L 2975 1775 
L 2975 1375 
z
" transform="scale(0.015625)"/>
       <path id="SimHei-30" d="M 225 2537 
Q 250 3200 412 3587 
Q 575 3975 875 4225 
Q 1175 4475 1612 4475 
Q 2050 4475 2375 4112 
Q 2700 3750 2800 3200 
Q 2900 2650 2862 1937 
Q 2825 1225 2612 775 
Q 2400 325 1975 150 
Q 1550 -25 1125 187 
Q 700 400 525 750 
Q 350 1100 275 1487 
Q 200 1875 225 2537 
z
M 750 2687 
Q 675 2000 800 1462 
Q 925 925 1212 700 
Q 1500 475 1800 612 
Q 2100 750 2237 1162 
Q 2375 1575 2375 2062 
Q 2375 2550 2337 2950 
Q 2300 3350 2112 3675 
Q 1925 4000 1612 4012 
Q 1300 4025 1062 3700 
Q 825 3375 750 2687 
z
" transform="scale(0.015625)"/>
       <path id="SimHei-2e" d="M 1075 125 
L 500 125 
L 500 675 
L 1075 675 
L 1075 125 
z
" transform="scale(0.015625)"/>
       <path id="SimHei-32" d="M 300 250 
Q 325 625 650 925 
Q 975 1225 1475 1862 
Q 1975 2500 2125 2850 
Q 2275 3200 2237 3450 
Q 2200 3700 2000 3862 
Q 1800 4025 1537 4000 
Q 1275 3975 1037 3800 
Q 800 3625 675 3275 
L 200 3350 
Q 400 3925 712 4187 
Q 1025 4450 1450 4475 
Q 1700 4500 1900 4462 
Q 2100 4425 2312 4287 
Q 2525 4150 2662 3875 
Q 2800 3600 2762 3212 
Q 2725 2825 2375 2287 
Q 2025 1750 1025 600 
L 2825 600 
L 2825 150 
L 300 150 
L 300 250 
z
" transform="scale(0.015625)"/>
       <path id="SimHei-31" d="M 1400 3600 
Q 1075 3275 575 2975 
L 575 3450 
Q 1200 3875 1600 4450 
L 1900 4450 
L 1900 150 
L 1400 150 
L 1400 3600 
z
" transform="scale(0.015625)"/>
       <path id="SimHei-35" d="M 550 1325 
Q 725 650 1150 575 
Q 1575 500 1837 662 
Q 2100 825 2212 1087 
Q 2325 1350 2312 1675 
Q 2300 2000 2137 2225 
Q 1975 2450 1725 2525 
Q 1475 2600 1162 2525 
Q 850 2450 650 2175 
L 225 2225 
Q 275 2375 700 4375 
L 2675 4375 
L 2675 3925 
L 1075 3925 
Q 950 3250 825 2850 
Q 1200 3025 1525 3012 
Q 1850 3000 2150 2862 
Q 2450 2725 2587 2487 
Q 2725 2250 2787 2012 
Q 2850 1775 2837 1500 
Q 2825 1225 2725 937 
Q 2625 650 2425 462 
Q 2225 275 1937 162 
Q 1650 50 1275 75 
Q 900 100 562 350 
Q 225 600 100 1200 
L 550 1325 
z
" transform="scale(0.015625)"/>
       <path id="SimHei-2c" d="M 1100 125 
L 775 -550 
L 525 -550 
L 775 125 
L 525 125 
L 525 675 
L 1100 675 
L 1100 125 
z
" transform="scale(0.015625)"/>
       <path id="SimHei-20" transform="scale(0.015625)"/>
       <path id="SimHei-6c76" d="M 4925 3975 
Q 5475 3975 5950 4000 
L 5950 3475 
L 5475 3500 
L 5175 3500 
Q 5050 2625 4850 2050 
Q 4650 1475 4300 875 
Q 4600 575 5100 300 
Q 5600 25 6200 -75 
Q 5750 -325 5725 -550 
Q 5125 -350 4700 -75 
Q 4275 200 3950 525 
Q 3650 200 3212 -100 
Q 2775 -400 2250 -700 
Q 2150 -475 1775 -225 
Q 2275 -100 2800 225 
Q 3325 550 3625 875 
Q 3325 1325 3100 1887 
Q 2875 2450 2725 3500 
L 2225 3500 
L 2225 4000 
Q 2925 3975 3675 3975 
L 4925 3975 
z
M 3200 3500 
Q 3425 2000 3975 1275 
Q 4450 2125 4650 3500 
L 3200 3500 
z
M 1975 1625 
Q 1700 1225 1437 600 
Q 1175 -25 950 -525 
Q 700 -350 325 -200 
Q 650 125 975 787 
Q 1300 1450 1450 1950 
Q 1675 1750 1975 1625 
z
M 625 3600 
Q 1150 3275 1675 2875 
Q 1450 2725 1275 2425 
Q 900 2825 300 3175 
Q 500 3375 625 3600 
z
M 1200 5075 
Q 1600 4700 1975 4225 
Q 1700 4050 1525 3850 
Q 1225 4375 800 4750 
Q 1000 4900 1200 5075 
z
M 3925 5250 
Q 4125 4850 4325 4425 
Q 4050 4325 3850 4175 
Q 3650 4650 3425 5025 
Q 3650 5125 3925 5250 
z
" transform="scale(0.015625)"/>
       <path id="SimHei-5ddd" d="M 5525 5025 
Q 5500 4550 5500 4400 
L 5500 400 
Q 5500 -50 5525 -600 
L 4975 -600 
Q 5000 -25 5000 400 
L 5000 4525 
Q 5000 4750 4975 5025 
L 5525 5025 
z
M 1325 4900 
Q 1700 4850 1925 4850 
Q 1850 4300 1850 3575 
Q 1850 2875 1825 2362 
Q 1800 1850 1675 1162 
Q 1550 475 900 -525 
Q 675 -325 350 -200 
Q 775 225 1025 837 
Q 1275 1450 1312 2162 
Q 1350 2875 1350 3550 
Q 1350 4250 1325 4900 
z
M 3650 4525 
Q 3625 4275 3625 3750 
L 3625 775 
Q 3625 375 3650 -175 
L 3100 -175 
Q 3125 375 3125 800 
L 3125 3700 
Q 3125 4100 3100 4525 
L 3650 4525 
z
" transform="scale(0.015625)"/>
      </defs>
      <use xlink:href="#SimHei-50"/>
      <use xlink:href="#SimHei-4f" x="50"/>
      <use xlink:href="#SimHei-45" x="100"/>
      <use xlink:href="#SimHei-3d" x="150"/>
      <use xlink:href="#SimHei-30" x="200"/>
      <use xlink:href="#SimHei-2e" x="250"/>
      <use xlink:href="#SimHei-30" x="300"/>
      <use xlink:href="#SimHei-30" x="350"/>
      <use xlink:href="#SimHei-32" x="400"/>
      <use xlink:href="#SimHei-31" x="450"/>
      <use xlink:href="#SimHei-30" x="500"/>
      <use xlink:href="#SimHei-35" x="550"/>
      <use xlink:href="#SimHei-2c" x="600"/>
      <use xlink:href="#SimHei-20" x="650"/>
      <use xlink:href="#SimHei-6c76" x="700"/>
      <use xlink:href="#SimHei-5ddd" x="800"/>
     </g>
    </g>
    <g id="line2d_30">
     <path d="M 287.72 69.276688 
L 297.72 69.276688 
L 307.72 69.276688 
" style="fill: none; stroke: #0000ff; stroke-width: 1.5; stroke-linecap: square"/>
    </g>
    <g id="text_20">
     <!-- POE=0.002105, 南京 -->
     <g transform="translate(315.72 72.776688) scale(0.1 -0.1)">
      <defs>
       <path id="SimHei-5357" d="M 4550 -100 
Q 4925 -100 5100 -87 
Q 5275 -75 5225 175 
L 5225 3075 
L 1125 3075 
L 1125 -600 
L 575 -600 
Q 625 25 625 675 
L 625 2200 
Q 625 2800 575 3450 
L 2750 3450 
L 2875 4150 
L 1875 4150 
Q 1250 4150 425 4100 
L 425 4575 
Q 1000 4525 1700 4525 
L 2925 4525 
Q 3000 5000 3000 5275 
Q 3325 5200 3575 5175 
Q 3475 4900 3425 4525 
L 5100 4525 
Q 5525 4525 6025 4550 
L 6025 4125 
Q 5550 4150 5100 4150 
L 3375 4150 
L 3250 3450 
L 5775 3450 
Q 5725 2875 5725 2425 
L 5725 -75 
Q 5700 -425 5425 -487 
Q 5150 -550 4800 -625 
Q 4725 -350 4550 -100 
z
M 1625 2025 
Q 1975 1975 2500 1975 
L 3350 1975 
Q 3500 2175 3600 2375 
Q 3700 2575 3875 2900 
Q 4125 2775 4450 2650 
Q 4250 2575 4137 2375 
Q 4025 2175 3875 1975 
L 4175 1975 
Q 4425 1975 4775 2000 
L 4775 1575 
Q 4450 1600 4025 1600 
L 3450 1600 
L 3450 1100 
L 4175 1100 
Q 4700 1100 4950 1125 
L 4950 675 
Q 4700 700 4175 700 
L 3450 700 
L 3450 275 
Q 3450 -50 3475 -375 
L 2925 -375 
Q 2950 -100 2950 275 
L 2950 700 
L 2275 700 
Q 1725 700 1425 675 
L 1425 1150 
Q 1800 1100 2225 1100 
L 2950 1100 
L 2950 1600 
L 2500 1600 
Q 2000 1600 1625 1575 
L 1625 2025 
z
M 2850 2325 
Q 2650 2200 2450 2050 
Q 2350 2250 2225 2412 
Q 2100 2575 1975 2700 
Q 2125 2775 2325 2950 
Q 2475 2775 2587 2650 
Q 2700 2525 2850 2325 
z
" transform="scale(0.015625)"/>
       <path id="SimHei-4eac" d="M 5100 3450 
Q 5075 3050 5075 2475 
Q 5075 1925 5100 1625 
L 3525 1625 
L 3525 100 
Q 3525 -325 3300 -450 
Q 3075 -575 2450 -650 
Q 2375 -350 2200 -100 
Q 2750 -125 2887 -75 
Q 3025 -25 3025 275 
L 3025 1625 
L 1375 1625 
Q 1400 2050 1400 2575 
Q 1400 3100 1375 3450 
L 5100 3450 
z
M 3150 5275 
Q 3400 4875 3625 4400 
L 5000 4400 
Q 5575 4400 6000 4425 
L 6000 3950 
Q 5575 3975 5000 3975 
L 1425 3975 
Q 950 3975 425 3950 
L 425 4425 
Q 925 4400 1425 4400 
L 3025 4400 
Q 2950 4625 2675 5075 
Q 2975 5175 3150 5275 
z
M 4575 2050 
L 4575 3025 
L 1900 3025 
L 1900 2050 
L 4575 2050 
z
M 2325 1075 
Q 1875 625 850 -325 
Q 650 -100 450 75 
Q 1500 850 1925 1475 
Q 2100 1250 2325 1075 
z
M 4400 1375 
Q 4925 975 5312 662 
Q 5700 350 5900 150 
Q 5700 -50 5500 -275 
Q 5150 125 4075 975 
Q 4225 1150 4400 1375 
z
" transform="scale(0.015625)"/>
      </defs>
      <use xlink:href="#SimHei-50"/>
      <use xlink:href="#SimHei-4f" x="50"/>
      <use xlink:href="#SimHei-45" x="100"/>
      <use xlink:href="#SimHei-3d" x="150"/>
      <use xlink:href="#SimHei-30" x="200"/>
      <use xlink:href="#SimHei-2e" x="250"/>
      <use xlink:href="#SimHei-30" x="300"/>
      <use xlink:href="#SimHei-30" x="350"/>
      <use xlink:href="#SimHei-32" x="400"/>
      <use xlink:href="#SimHei-31" x="450"/>
      <use xlink:href="#SimHei-30" x="500"/>
      <use xlink:href="#SimHei-35" x="550"/>
      <use xlink:href="#SimHei-2c" x="600"/>
      <use xlink:href="#SimHei-20" x="650"/>
      <use xlink:href="#SimHei-5357" x="700"/>
      <use xlink:href="#SimHei-4eac" x="800"/>
     </g>
    </g>
    <g id="line2d_31">
     <path d="M 287.72 83.417313 
L 297.72 83.417313 
L 307.72 83.417313 
" style="fill: none; stroke: #ff0000; stroke-width: 1.5; stroke-linecap: square"/>
    </g>
    <g id="text_21">
     <!-- POE=0.002105, 拉萨 -->
     <g transform="translate(315.72 86.917313) scale(0.1 -0.1)">
      <defs>
       <path id="SimHei-62c9" d="M 350 3925 
Q 625 3900 1325 3900 
Q 1325 4700 1300 5175 
L 1825 5175 
Q 1800 4925 1800 3900 
Q 2000 3900 2425 3925 
L 2425 3475 
Q 1975 3500 1800 3500 
L 1800 2450 
Q 2175 2625 2425 2800 
Q 2475 2575 2525 2375 
Q 2225 2225 1800 2000 
L 1800 50 
Q 1800 -275 1525 -412 
Q 1250 -550 725 -600 
Q 675 -400 525 -50 
Q 1200 -75 1262 25 
Q 1325 125 1325 350 
L 1325 1800 
Q 1100 1700 525 1375 
Q 400 1650 250 1825 
Q 675 1975 1325 2250 
L 1325 3500 
Q 600 3500 350 3475 
L 350 3925 
z
M 6175 -250 
Q 5750 -225 5400 -225 
L 3225 -225 
Q 2650 -225 2275 -250 
L 2275 200 
Q 2625 175 3200 175 
L 4275 175 
Q 4450 675 4687 1500 
Q 4925 2325 5100 3250 
Q 5375 3050 5675 3000 
Q 5550 2825 5375 2200 
Q 5200 1575 4750 175 
L 5400 175 
Q 5800 175 6175 200 
L 6175 -250 
z
M 2625 3950 
Q 2925 3925 3325 3925 
L 5350 3925 
Q 5775 3950 5900 3950 
L 5900 3500 
Q 5800 3525 5325 3525 
L 3325 3525 
Q 3150 3525 2625 3500 
L 2625 3950 
z
M 3325 3000 
Q 3875 1475 4100 750 
Q 3850 675 3575 575 
Q 3325 1525 2850 2825 
Q 3075 2900 3325 3000 
z
M 4050 5225 
Q 4400 4550 4525 4200 
Q 4325 4150 4025 4000 
Q 3925 4350 3600 5025 
Q 3775 5075 4050 5225 
z
" transform="scale(0.015625)"/>
       <path id="SimHei-8428" d="M 1200 950 
Q 1900 925 1850 1325 
Q 1800 1725 1425 2150 
Q 1625 2600 1850 3200 
L 1025 3200 
L 1025 -600 
L 550 -600 
Q 575 -150 575 250 
L 575 2800 
Q 575 3150 550 3575 
L 2525 3575 
Q 2450 3375 2275 2962 
Q 2100 2550 1900 2175 
Q 2575 1375 2362 962 
Q 2150 550 1475 450 
Q 1425 725 1200 950 
z
M 6000 4275 
Q 5650 4300 5325 4300 
L 4250 4300 
Q 4250 4150 4275 3925 
L 3775 3925 
L 3775 4300 
L 2525 4300 
L 2525 3875 
L 2000 3875 
Q 2050 4100 2050 4300 
L 1150 4300 
Q 775 4300 400 4275 
L 400 4725 
Q 775 4700 1150 4700 
L 2050 4700 
Q 2050 4875 2000 5225 
L 2550 5225 
Q 2525 4875 2525 4700 
L 3775 4700 
Q 3775 4875 3750 5225 
L 4275 5225 
Q 4250 4900 4250 4700 
L 5325 4700 
Q 5700 4700 6000 4725 
L 6000 4275 
z
M 1775 -225 
Q 2275 -25 2500 300 
Q 2725 625 2762 1112 
Q 2800 1600 2775 1975 
L 4650 1975 
Q 4875 2500 4925 2800 
Q 5150 2700 5475 2600 
Q 5350 2475 5125 1975 
Q 5625 1975 6100 2000 
L 6100 1575 
Q 5625 1600 5225 1600 
L 3275 1600 
Q 3275 675 2975 175 
Q 2675 -325 2225 -625 
Q 2075 -400 1775 -225 
z
M 4200 3325 
Q 4175 3525 4075 3750 
Q 4325 3800 4575 3875 
Q 4650 3575 4750 3325 
Q 5525 3325 5975 3350 
L 5975 2925 
Q 5525 2950 5025 2950 
L 3850 2950 
Q 3325 2950 2925 2925 
L 2925 3350 
Q 3350 3325 4200 3325 
z
M 3675 2850 
Q 3875 2550 4050 2300 
Q 3875 2225 3650 2075 
Q 3500 2425 3300 2625 
Q 3525 2725 3675 2850 
z
" transform="scale(0.015625)"/>
      </defs>
      <use xlink:href="#SimHei-50"/>
      <use xlink:href="#SimHei-4f" x="50"/>
      <use xlink:href="#SimHei-45" x="100"/>
      <use xlink:href="#SimHei-3d" x="150"/>
      <use xlink:href="#SimHei-30" x="200"/>
      <use xlink:href="#SimHei-2e" x="250"/>
      <use xlink:href="#SimHei-30" x="300"/>
      <use xlink:href="#SimHei-30" x="350"/>
      <use xlink:href="#SimHei-32" x="400"/>
      <use xlink:href="#SimHei-31" x="450"/>
      <use xlink:href="#SimHei-30" x="500"/>
      <use xlink:href="#SimHei-35" x="550"/>
      <use xlink:href="#SimHei-2c" x="600"/>
      <use xlink:href="#SimHei-20" x="650"/>
      <use xlink:href="#SimHei-62c9" x="700"/>
      <use xlink:href="#SimHei-8428" x="800"/>
     </g>
    </g>
    <g id="line2d_32">
     <path d="M 287.72 97.714188 
L 297.72 97.714188 
L 307.72 97.714188 
" style="fill: none; stroke-dasharray: 5.55,2.4; stroke-dashoffset: 0; stroke: #008000; stroke-width: 1.5"/>
    </g>
    <g id="text_22">
     <!-- POE=0.000404, 汶川 -->
     <g transform="translate(315.72 101.214188) scale(0.1 -0.1)">
      <defs>
       <path id="SimHei-34" d="M 2000 1100 
L 75 1100 
L 75 1525 
L 2100 4450 
L 2475 4450 
L 2475 1525 
L 3075 1525 
L 3075 1100 
L 2475 1100 
L 2475 150 
L 2000 150 
L 2000 1100 
z
M 2000 1525 
L 2000 3500 
L 600 1525 
L 2000 1525 
z
" transform="scale(0.015625)"/>
      </defs>
      <use xlink:href="#SimHei-50"/>
      <use xlink:href="#SimHei-4f" x="50"/>
      <use xlink:href="#SimHei-45" x="100"/>
      <use xlink:href="#SimHei-3d" x="150"/>
      <use xlink:href="#SimHei-30" x="200"/>
      <use xlink:href="#SimHei-2e" x="250"/>
      <use xlink:href="#SimHei-30" x="300"/>
      <use xlink:href="#SimHei-30" x="350"/>
      <use xlink:href="#SimHei-30" x="400"/>
      <use xlink:href="#SimHei-34" x="450"/>
      <use xlink:href="#SimHei-30" x="500"/>
      <use xlink:href="#SimHei-34" x="550"/>
      <use xlink:href="#SimHei-2c" x="600"/>
      <use xlink:href="#SimHei-20" x="650"/>
      <use xlink:href="#SimHei-6c76" x="700"/>
      <use xlink:href="#SimHei-5ddd" x="800"/>
     </g>
    </g>
    <g id="line2d_33">
     <path d="M 287.72 111.972 
L 297.72 111.972 
L 307.72 111.972 
" style="fill: none; stroke-dasharray: 5.55,2.4; stroke-dashoffset: 0; stroke: #0000ff; stroke-width: 1.5"/>
    </g>
    <g id="text_23">
     <!-- POE=0.000404, 南京 -->
     <g transform="translate(315.72 115.472) scale(0.1 -0.1)">
      <use xlink:href="#SimHei-50"/>
      <use xlink:href="#SimHei-4f" x="50"/>
      <use xlink:href="#SimHei-45" x="100"/>
      <use xlink:href="#SimHei-3d" x="150"/>
      <use xlink:href="#SimHei-30" x="200"/>
      <use xlink:href="#SimHei-2e" x="250"/>
      <use xlink:href="#SimHei-30" x="300"/>
      <use xlink:href="#SimHei-30" x="350"/>
      <use xlink:href="#SimHei-30" x="400"/>
      <use xlink:href="#SimHei-34" x="450"/>
      <use xlink:href="#SimHei-30" x="500"/>
      <use xlink:href="#SimHei-34" x="550"/>
      <use xlink:href="#SimHei-2c" x="600"/>
      <use xlink:href="#SimHei-20" x="650"/>
      <use xlink:href="#SimHei-5357" x="700"/>
      <use xlink:href="#SimHei-4eac" x="800"/>
     </g>
    </g>
    <g id="line2d_34">
     <path d="M 287.72 126.112625 
L 297.72 126.112625 
L 307.72 126.112625 
" style="fill: none; stroke-dasharray: 5.55,2.4; stroke-dashoffset: 0; stroke: #ff0000; stroke-width: 1.5"/>
    </g>
    <g id="text_24">
     <!-- POE=0.000404, 拉萨 -->
     <g transform="translate(315.72 129.612625) scale(0.1 -0.1)">
      <use xlink:href="#SimHei-50"/>
      <use xlink:href="#SimHei-4f" x="50"/>
      <use xlink:href="#SimHei-45" x="100"/>
      <use xlink:href="#SimHei-3d" x="150"/>
      <use xlink:href="#SimHei-30" x="200"/>
      <use xlink:href="#SimHei-2e" x="250"/>
      <use xlink:href="#SimHei-30" x="300"/>
      <use xlink:href="#SimHei-30" x="350"/>
      <use xlink:href="#SimHei-30" x="400"/>
      <use xlink:href="#SimHei-34" x="450"/>
      <use xlink:href="#SimHei-30" x="500"/>
      <use xlink:href="#SimHei-34" x="550"/>
      <use xlink:href="#SimHei-2c" x="600"/>
      <use xlink:href="#SimHei-20" x="650"/>
      <use xlink:href="#SimHei-62c9" x="700"/>
      <use xlink:href="#SimHei-8428" x="800"/>
     </g>
    </g>
    <g id="line2d_35">
     <path d="M 287.72 140.487625 
L 297.72 140.487625 
L 307.72 140.487625 
" style="fill: none; stroke: #008000; stroke-width: 1.5; stroke-linecap: square"/>
    </g>
    <g id="text_25">
     <!-- 规范中震, 汶川 -->
     <g transform="translate(315.72 143.987625) scale(0.1 -0.1)">
      <defs>
       <path id="SimHei-89c4" d="M 1875 1725 
Q 2475 1275 3000 825 
Q 2800 600 2625 375 
Q 2275 850 1750 1250 
Q 1575 850 1312 387 
Q 1050 -75 700 -525 
Q 500 -275 200 -150 
Q 525 75 787 450 
Q 1050 825 1237 1287 
Q 1425 1750 1450 2250 
L 1225 2250 
Q 850 2250 400 2225 
L 400 2675 
Q 850 2650 1250 2650 
L 1475 2650 
L 1475 3725 
Q 975 3725 650 3700 
L 650 4150 
Q 1000 4125 1475 4125 
Q 1475 4975 1450 5300 
Q 1725 5275 2050 5225 
Q 1950 5075 1937 4737 
Q 1925 4400 1925 4125 
Q 2475 4125 2700 4150 
L 2700 3700 
Q 2400 3725 1925 3725 
L 1925 2650 
Q 2600 2650 2825 2675 
L 2825 2225 
Q 2600 2250 1900 2250 
Q 1900 2050 1875 1725 
z
M 4675 3700 
Q 4600 3400 4550 2775 
Q 4500 2150 4425 1675 
L 4850 1675 
Q 4825 1425 4825 1000 
L 4825 300 
Q 4825 -25 4987 -75 
Q 5150 -125 5325 -112 
Q 5500 -100 5562 25 
Q 5625 150 5700 675 
Q 5900 500 6200 400 
Q 6000 -275 5862 -412 
Q 5725 -550 5400 -550 
L 4925 -550 
Q 4375 -550 4375 25 
L 4375 1550 
Q 4275 1175 4112 875 
Q 3950 575 3562 200 
Q 3175 -175 2375 -625 
Q 2225 -400 1950 -225 
Q 2725 100 3187 525 
Q 3650 950 3837 1375 
Q 4025 1800 4075 2462 
Q 4125 3125 4125 3800 
Q 4450 3725 4675 3700 
z
M 5700 4875 
Q 5675 4475 5675 3275 
Q 5675 2075 5700 1575 
L 5225 1575 
L 5225 4450 
L 3450 4450 
L 3450 1550 
L 3000 1550 
Q 3025 2125 3025 3275 
Q 3025 4425 3000 4875 
L 5700 4875 
z
" transform="scale(0.015625)"/>
       <path id="SimHei-8303" d="M 4200 875 
Q 4150 1150 3925 1400 
Q 4450 1400 4612 1450 
Q 4775 1500 4800 1725 
L 4850 2700 
L 3400 2700 
L 3400 325 
Q 3450 -25 3825 0 
L 5150 0 
Q 5325 0 5412 100 
Q 5500 200 5550 625 
Q 5825 450 6075 375 
Q 5925 -150 5775 -275 
Q 5625 -400 5300 -400 
L 3475 -400 
Q 2900 -400 2900 225 
L 2900 2000 
Q 2900 2625 2875 3100 
L 5375 3100 
Q 5350 2750 5325 2175 
Q 5300 1600 5250 1375 
Q 5200 1150 4962 1050 
Q 4725 950 4200 875 
z
M 1875 4400 
Q 1875 4700 1850 5125 
L 2400 5125 
Q 2375 4775 2375 4400 
L 3975 4400 
Q 3975 4825 3925 5125 
L 4500 5125 
Q 4475 4825 4475 4400 
L 5375 4400 
Q 5650 4400 6050 4425 
L 6050 3975 
Q 5650 4000 5375 4000 
L 4475 4000 
Q 4475 3675 4500 3350 
L 3975 3350 
L 3975 4000 
L 2375 4000 
L 2375 3325 
L 1850 3325 
Q 1875 3650 1875 4000 
L 1025 4000 
Q 550 4000 350 3975 
L 350 4425 
Q 775 4400 1025 4400 
L 1875 4400 
z
M 2250 900 
Q 2000 600 1562 100 
Q 1125 -400 925 -625 
Q 800 -450 525 -250 
Q 775 -75 1237 425 
Q 1700 925 1925 1250 
Q 2075 1075 2250 900 
z
M 725 2275 
Q 1325 1925 1800 1600 
Q 1550 1425 1425 1200 
Q 975 1575 375 1900 
Q 550 2075 725 2275 
z
M 1300 3450 
Q 1750 3150 2250 2700 
Q 2050 2575 1850 2350 
Q 1400 2800 925 3100 
Q 1125 3275 1300 3450 
z
" transform="scale(0.015625)"/>
       <path id="SimHei-4e2d" d="M 3475 5200 
Q 3450 4500 3450 3875 
L 5625 3875 
Q 5600 3375 5600 2500 
Q 5600 1650 5625 1225 
L 5075 1225 
L 5075 1600 
L 3450 1600 
L 3450 525 
Q 3450 225 3475 -600 
L 2875 -600 
Q 2925 -150 2925 450 
L 2925 1600 
L 1300 1600 
L 1300 1225 
L 750 1225 
Q 775 1600 775 2500 
Q 775 3425 750 3875 
L 2925 3875 
Q 2925 4550 2900 5200 
L 3475 5200 
z
M 5075 2000 
L 5075 3475 
L 3450 3475 
L 3450 2000 
L 5075 2000 
z
M 2925 2000 
L 2925 3475 
L 1300 3475 
L 1300 2000 
L 2925 2000 
z
" transform="scale(0.015625)"/>
       <path id="SimHei-9707" d="M 1875 -250 
Q 2050 -75 2050 150 
L 2050 1025 
L 1475 1025 
Q 1475 625 1362 237 
Q 1250 -150 875 -675 
Q 675 -500 450 -375 
Q 700 -150 825 112 
Q 950 375 975 700 
Q 1000 1025 1000 1675 
Q 1000 2350 975 2675 
L 4875 2675 
Q 5225 2675 5625 2700 
L 5625 2300 
Q 5225 2325 4875 2325 
L 1475 2325 
L 1475 1375 
L 5025 1375 
Q 5400 1375 5800 1400 
L 5800 1000 
Q 5450 1025 5025 1025 
L 3575 1025 
Q 3650 875 3775 687 
Q 3900 500 4150 350 
Q 4325 500 4400 637 
Q 4475 775 4600 950 
Q 4850 775 5025 600 
Q 4800 475 4712 400 
Q 4625 325 4450 200 
Q 4700 100 4937 50 
Q 5175 0 5925 -25 
Q 5800 -250 5725 -575 
Q 5025 -475 4575 -325 
Q 4125 -175 3850 25 
Q 3575 225 3412 487 
Q 3250 750 3150 1025 
L 2475 1025 
L 2475 0 
Q 2975 200 3250 325 
Q 3250 125 3300 -125 
Q 3150 -175 2812 -325 
Q 2475 -475 2075 -675 
Q 1950 -450 1875 -250 
z
M 4700 5050 
Q 5050 5050 5500 5075 
L 5500 4675 
Q 5050 4700 4700 4700 
L 3425 4700 
L 3425 4400 
L 5900 4400 
Q 5875 4150 5875 3900 
Q 5875 3675 5900 3400 
L 5450 3400 
L 5450 4050 
L 3425 4050 
L 3425 2975 
L 2950 2975 
L 2950 4050 
L 950 4050 
L 950 3400 
L 475 3400 
L 475 4400 
L 2950 4400 
L 2950 4700 
L 1725 4700 
Q 1425 4700 1000 4675 
L 1000 5075 
Q 1375 5050 1725 5050 
L 4700 5050 
z
M 4350 2050 
Q 4725 2050 5150 2075 
L 5150 1675 
Q 4725 1700 4350 1700 
L 2750 1700 
Q 2375 1700 1925 1675 
L 1925 2075 
Q 2375 2050 2750 2050 
L 4350 2050 
z
M 2600 3475 
L 1300 3475 
L 1300 3775 
L 2600 3775 
L 2600 3475 
z
M 2600 2975 
L 1300 2975 
L 1300 3275 
L 2600 3275 
L 2600 2975 
z
M 5050 3475 
L 3825 3475 
L 3825 3775 
L 5050 3775 
L 5050 3475 
z
M 5050 2925 
L 3825 2925 
L 3825 3225 
L 5050 3225 
L 5050 2925 
z
" transform="scale(0.015625)"/>
      </defs>
      <use xlink:href="#SimHei-89c4"/>
      <use xlink:href="#SimHei-8303" x="100"/>
      <use xlink:href="#SimHei-4e2d" x="200"/>
      <use xlink:href="#SimHei-9707" x="300"/>
      <use xlink:href="#SimHei-2c" x="400"/>
      <use xlink:href="#SimHei-20" x="450"/>
      <use xlink:href="#SimHei-6c76" x="500"/>
      <use xlink:href="#SimHei-5ddd" x="600"/>
     </g>
    </g>
    <g id="line2d_36">
     <path d="M 287.72 154.862625 
L 297.72 154.862625 
L 307.72 154.862625 
" style="fill: none; stroke-dasharray: 5.55,2.4; stroke-dashoffset: 0; stroke: #008000; stroke-width: 1.5"/>
    </g>
    <g id="text_26">
     <!-- 规范大震, 汶川 -->
     <g transform="translate(315.72 158.362625) scale(0.1 -0.1)">
      <defs>
       <path id="SimHei-5927" d="M 2900 3400 
Q 2925 4275 2912 4575 
Q 2900 4875 2875 5150 
Q 3175 5100 3550 5075 
Q 3475 4825 3437 4350 
Q 3400 3875 3400 3400 
L 4675 3400 
Q 5350 3400 5925 3450 
L 5925 2900 
Q 5425 2925 4900 2925 
L 3425 2925 
Q 3525 2500 3775 2062 
Q 4025 1625 4287 1287 
Q 4550 950 5012 575 
Q 5475 200 6025 -50 
Q 5825 -200 5625 -550 
Q 5175 -300 4737 75 
Q 4300 450 3862 1062 
Q 3425 1675 3200 2200 
Q 3000 1650 2775 1287 
Q 2550 925 2287 625 
Q 2025 325 1612 25 
Q 1200 -275 675 -575 
Q 475 -275 225 -50 
Q 750 125 1262 450 
Q 1775 775 2100 1187 
Q 2425 1600 2625 2050 
Q 2825 2500 2875 2925 
L 1500 2925 
Q 900 2925 550 2900 
L 550 3450 
Q 900 3425 1500 3400 
L 2900 3400 
z
" transform="scale(0.015625)"/>
      </defs>
      <use xlink:href="#SimHei-89c4"/>
      <use xlink:href="#SimHei-8303" x="100"/>
      <use xlink:href="#SimHei-5927" x="200"/>
      <use xlink:href="#SimHei-9707" x="300"/>
      <use xlink:href="#SimHei-2c" x="400"/>
      <use xlink:href="#SimHei-20" x="450"/>
      <use xlink:href="#SimHei-6c76" x="500"/>
      <use xlink:href="#SimHei-5ddd" x="600"/>
     </g>
    </g>
    <g id="line2d_37">
     <path d="M 287.72 169.198563 
L 297.72 169.198563 
L 307.72 169.198563 
" style="fill: none; stroke: #0000ff; stroke-width: 1.5; stroke-linecap: square"/>
    </g>
    <g id="text_27">
     <!-- 规范中震, 南京 -->
     <g transform="translate(315.72 172.698563) scale(0.1 -0.1)">
      <use xlink:href="#SimHei-89c4"/>
      <use xlink:href="#SimHei-8303" x="100"/>
      <use xlink:href="#SimHei-4e2d" x="200"/>
      <use xlink:href="#SimHei-9707" x="300"/>
      <use xlink:href="#SimHei-2c" x="400"/>
      <use xlink:href="#SimHei-20" x="450"/>
      <use xlink:href="#SimHei-5357" x="500"/>
      <use xlink:href="#SimHei-4eac" x="600"/>
     </g>
    </g>
    <g id="line2d_38">
     <path d="M 287.72 183.5345 
L 297.72 183.5345 
L 307.72 183.5345 
" style="fill: none; stroke-dasharray: 5.55,2.4; stroke-dashoffset: 0; stroke: #0000ff; stroke-width: 1.5"/>
    </g>
    <g id="text_28">
     <!-- 规范大震, 南京 -->
     <g transform="translate(315.72 187.0345) scale(0.1 -0.1)">
      <use xlink:href="#SimHei-89c4"/>
      <use xlink:href="#SimHei-8303" x="100"/>
      <use xlink:href="#SimHei-5927" x="200"/>
      <use xlink:href="#SimHei-9707" x="300"/>
      <use xlink:href="#SimHei-2c" x="400"/>
      <use xlink:href="#SimHei-20" x="450"/>
      <use xlink:href="#SimHei-5357" x="500"/>
      <use xlink:href="#SimHei-4eac" x="600"/>
     </g>
    </g>
    <g id="line2d_39">
     <path d="M 287.72 197.870438 
L 297.72 197.870438 
L 307.72 197.870438 
" style="fill: none; stroke: #ff0000; stroke-width: 1.5; stroke-linecap: square"/>
    </g>
    <g id="text_29">
     <!-- 规范中震, 拉萨 -->
     <g transform="translate(315.72 201.370438) scale(0.1 -0.1)">
      <use xlink:href="#SimHei-89c4"/>
      <use xlink:href="#SimHei-8303" x="100"/>
      <use xlink:href="#SimHei-4e2d" x="200"/>
      <use xlink:href="#SimHei-9707" x="300"/>
      <use xlink:href="#SimHei-2c" x="400"/>
      <use xlink:href="#SimHei-20" x="450"/>
      <use xlink:href="#SimHei-62c9" x="500"/>
      <use xlink:href="#SimHei-8428" x="600"/>
     </g>
    </g>
    <g id="line2d_40">
     <path d="M 287.72 212.206375 
L 297.72 212.206375 
L 307.72 212.206375 
" style="fill: none; stroke-dasharray: 5.55,2.4; stroke-dashoffset: 0; stroke: #ff0000; stroke-width: 1.5"/>
    </g>
    <g id="text_30">
     <!-- 规范大震, 拉萨 -->
     <g transform="translate(315.72 215.706375) scale(0.1 -0.1)">
      <use xlink:href="#SimHei-89c4"/>
      <use xlink:href="#SimHei-8303" x="100"/>
      <use xlink:href="#SimHei-5927" x="200"/>
      <use xlink:href="#SimHei-9707" x="300"/>
      <use xlink:href="#SimHei-2c" x="400"/>
      <use xlink:href="#SimHei-20" x="450"/>
      <use xlink:href="#SimHei-62c9" x="500"/>
      <use xlink:href="#SimHei-8428" x="600"/>
     </g>
    </g>
   </g>
  </g>
 </g>
 <defs>
  <clipPath id="pc6ae16dc19">
   <rect x="57.6" y="41.472" width="357.12" height="266.112"/>
  </clipPath>
 </defs>
</svg>
